<?xml version="1.0" standalone="no"?>
<!DOCTYPE svg PUBLIC "-//W3C//DTD SVG 20010904//EN"
 "http://www.w3.org/TR/2001/REC-SVG-20010904/DTD/svg10.dtd">
<svg version="1.0" xmlns="http://www.w3.org/2000/svg"
 width="3772.000000pt" height="3772.000000pt" viewBox="0 0 3772.000000 3772.000000"
 preserveAspectRatio="xMidYMid meet">
<metadata>
Created by potrace 1.14, written by Peter Selinger 2001-2017
</metadata>
<g transform="translate(0.000000,3772.000000) scale(0.100000,-0.100000)"
fill="#000000" stroke="none">
<path d="M26280 28199 c-112 -17 -252 -99 -366 -214 -64 -66 -254 -311 -254
-329 0 -3 -17 -31 -38 -63 -21 -32 -85 -139 -141 -238 -226 -395 -386 -594
-551 -684 -65 -35 -82 -42 -153 -60 -43 -11 -96 -30 -120 -44 -59 -35 -124
-108 -155 -175 -23 -49 -27 -70 -26 -152 0 -76 4 -104 21 -140 52 -109 123
-174 231 -211 80 -28 182 -24 304 11 302 87 569 297 840 660 46 62 94 137 187
290 5 8 44 76 87 150 42 74 89 153 104 175 15 22 29 45 31 50 2 6 26 43 54 84
l49 73 71 -75 c85 -91 223 -242 248 -271 10 -11 41 -45 70 -76 66 -70 177
-195 297 -330 51 -58 107 -121 124 -140 44 -48 289 -331 356 -410 30 -36 57
-67 60 -70 3 -3 70 -81 149 -175 78 -93 151 -179 160 -191 75 -88 493 -603
605 -744 243 -308 276 -351 276 -359 0 -4 -45 -28 -100 -55 -54 -26 -184 -95
-287 -153 -288 -161 -328 -186 -543 -331 -495 -335 -919 -702 -1280 -1107
-130 -147 -520 -659 -520 -684 0 -5 -4 -11 -8 -13 -5 -1 -28 -32 -53 -67 -264
-380 -312 -443 -433 -569 -295 -306 -675 -503 -1174 -608 -43 -8 -86 -18 -97
-20 -58 -12 -204 -39 -270 -49 -27 -5 -52 -9 -55 -10 -3 0 -30 -5 -60 -9 -30
-4 -64 -10 -75 -11 -11 -2 -40 -7 -65 -10 -25 -3 -56 -8 -70 -10 -39 -6 -427
-53 -500 -61 -36 -3 -76 -8 -90 -9 -14 -2 -52 -6 -85 -10 -33 -3 -76 -8 -95
-10 -19 -2 -82 -9 -140 -15 -58 -6 -112 -13 -120 -15 -8 -2 -53 -7 -100 -10
-47 -4 -87 -9 -90 -10 -3 -2 -42 -6 -86 -9 -44 -4 -89 -8 -100 -10 -10 -2 -50
-7 -89 -10 -38 -4 -90 -9 -115 -11 -25 -3 -67 -7 -95 -10 -27 -2 -75 -6 -105
-10 -30 -3 -75 -7 -100 -10 -77 -8 -142 -14 -220 -20 -41 -3 -88 -8 -105 -10
-16 -2 -66 -7 -110 -10 -44 -3 -98 -8 -120 -10 -22 -3 -76 -7 -120 -10 -43 -3
-93 -8 -110 -10 -16 -2 -73 -7 -125 -10 -52 -3 -113 -8 -135 -10 -22 -2 -80
-7 -130 -10 -49 -3 -112 -8 -140 -10 -76 -6 -190 -14 -290 -20 -49 -3 -115 -8
-145 -10 -30 -3 -98 -7 -150 -10 -52 -3 -120 -7 -150 -10 -30 -2 -107 -7 -170
-10 -63 -3 -148 -8 -188 -11 -40 -2 -116 -6 -170 -9 -53 -2 -137 -7 -187 -10
-184 -10 -335 -18 -634 -30 -526 -22 -785 -32 -1081 -40 -80 -2 -237 -7 -350
-10 -1152 -34 -2532 -48 -4585 -47 -1396 1 -2156 6 -2435 16 -166 7 -352 16
-385 21 -16 2 -77 7 -135 11 -57 3 -111 8 -120 9 -8 2 -22 4 -30 4 -12 1 -15
17 -15 79 -1 66 -8 192 -20 322 -2 19 -6 80 -10 135 -3 55 -8 120 -10 145 -6
71 -15 188 -20 270 -2 41 -7 100 -10 130 -3 30 -7 87 -10 125 -3 39 -7 93 -10
120 -3 28 -7 79 -10 115 -4 68 -12 157 -20 225 -4 38 -14 136 -20 200 -31 352
-174 578 -416 661 -119 40 -305 48 -450 19 -13 -3 -40 -8 -59 -11 -44 -7 -357
-69 -455 -90 -11 -2 -33 -7 -50 -9 -30 -6 -167 -34 -195 -40 -19 -5 -417 -84
-450 -90 -14 -2 -70 -14 -125 -26 -131 -27 -127 -26 -169 -33 -19 -3 -57 -11
-83 -17 -27 -6 -59 -13 -73 -15 -14 -2 -38 -7 -55 -11 -16 -4 -37 -8 -45 -9
-14 -3 -79 -16 -90 -19 -12 -3 -87 -17 -110 -21 -14 -3 -56 -11 -95 -19 -38
-8 -81 -17 -95 -19 -14 -2 -45 -9 -70 -15 -25 -5 -58 -12 -75 -15 -37 -7 -72
-14 -105 -21 -14 -3 -34 -7 -45 -9 -11 -2 -78 -16 -150 -31 -71 -15 -141 -29
-155 -31 -14 -2 -36 -7 -50 -10 -14 -3 -35 -8 -46 -10 -12 -2 -66 -13 -120
-25 -55 -11 -110 -22 -124 -25 -14 -2 -47 -9 -75 -15 -27 -6 -61 -12 -75 -14
-14 -2 -101 -20 -193 -40 -93 -19 -181 -37 -195 -40 -34 -6 -64 -12 -128 -25
-28 -6 -61 -13 -75 -15 -35 -7 -50 -10 -189 -39 -137 -29 -161 -34 -204 -42
-16 -2 -32 -7 -35 -9 -4 -2 -27 -6 -51 -10 -25 -4 -72 -13 -105 -20 -33 -8
-78 -17 -100 -20 -22 -3 -45 -8 -52 -10 -14 -5 -342 -72 -392 -80 -19 -3 -37
-7 -40 -9 -3 -2 -22 -7 -41 -10 -19 -3 -69 -12 -110 -21 -41 -9 -86 -19 -100
-21 -14 -3 -32 -7 -40 -9 -8 -2 -28 -7 -45 -9 -16 -3 -86 -17 -155 -32 -157
-32 -133 -28 -291 -59 -74 -15 -168 -33 -209 -40 -110 -21 -130 -24 -185 -35
-27 -5 -66 -12 -85 -15 -19 -4 -54 -10 -78 -16 -23 -5 -59 -12 -80 -15 -20 -3
-136 -26 -257 -50 -121 -25 -231 -47 -245 -50 -156 -32 -508 -125 -605 -161
-79 -29 -235 -108 -262 -132 -10 -9 -36 -29 -57 -45 -84 -63 -165 -164 -219
-271 -80 -161 -120 -328 -142 -600 -3 -44 -8 -100 -10 -125 -2 -25 -7 -85 -10
-135 -3 -49 -8 -117 -10 -150 -25 -361 -25 -1239 0 -1635 2 -36 6 -117 9 -182
4 -64 8 -136 11 -160 2 -23 7 -81 10 -128 3 -47 8 -103 10 -125 3 -22 7 -71
10 -110 3 -38 7 -83 10 -100 2 -16 7 -57 10 -90 11 -106 15 -149 20 -180 2
-16 7 -57 10 -90 4 -33 8 -71 10 -85 2 -14 6 -45 10 -70 7 -54 16 -118 21
-145 2 -11 6 -39 9 -62 6 -54 15 -112 20 -143 3 -14 7 -43 10 -65 3 -22 10
-62 15 -90 5 -27 11 -63 14 -80 2 -16 7 -41 10 -55 3 -14 7 -38 10 -55 2 -16
15 -91 29 -165 15 -74 28 -146 31 -160 20 -107 74 -351 120 -550 44 -187 40
-170 61 -250 9 -36 18 -72 20 -80 6 -26 52 -201 86 -320 37 -134 56 -174 99
-217 38 -37 136 -70 235 -78 39 -3 84 -8 100 -10 32 -5 100 -12 180 -21 28 -2
64 -7 80 -9 17 -2 62 -7 100 -11 39 -3 81 -8 95 -9 14 -2 54 -6 90 -10 36 -3
79 -8 95 -10 17 -2 59 -7 95 -10 36 -3 79 -8 95 -10 17 -2 59 -7 95 -10 36 -3
103 -10 150 -15 47 -5 114 -12 150 -15 36 -4 79 -8 95 -10 17 -2 62 -7 100
-10 69 -6 107 -10 195 -19 25 -3 74 -8 110 -11 36 -3 85 -8 110 -10 25 -3 68
-7 95 -10 49 -5 74 -7 225 -20 41 -3 89 -8 105 -10 17 -2 68 -7 115 -10 47 -4
96 -8 110 -10 14 -2 61 -7 105 -10 44 -3 96 -8 115 -10 19 -2 62 -6 95 -9 33
-3 87 -8 120 -11 33 -3 92 -7 130 -10 39 -3 90 -7 115 -10 25 -2 79 -7 120
-10 41 -3 95 -8 120 -10 25 -3 77 -7 115 -10 39 -3 95 -8 125 -10 30 -3 87 -8
125 -10 39 -3 97 -8 130 -11 33 -2 87 -7 120 -9 127 -9 202 -15 255 -20 30 -3
91 -7 135 -10 44 -3 98 -7 120 -9 22 -2 87 -7 145 -11 58 -3 123 -8 145 -10
22 -3 78 -7 125 -10 47 -3 108 -7 135 -9 28 -2 100 -7 160 -11 61 -3 128 -8
150 -10 22 -3 85 -7 140 -10 55 -3 123 -7 150 -10 28 -2 95 -7 150 -10 55 -3
127 -7 160 -10 33 -3 96 -7 140 -10 86 -4 213 -12 340 -20 85 -6 171 -11 325
-20 52 -3 131 -7 175 -10 84 -5 168 -10 375 -21 69 -3 150 -8 180 -9 30 -2
109 -6 175 -10 66 -3 154 -8 195 -10 220 -12 389 -20 605 -30 77 -3 167 -8
200 -10 33 -2 132 -7 220 -10 88 -4 189 -9 225 -10 36 -2 139 -6 230 -9 91 -4
203 -8 250 -11 104 -6 303 -14 470 -20 69 -2 186 -7 260 -10 74 -3 198 -7 275
-10 77 -2 205 -7 285 -10 375 -13 911 -30 1305 -40 110 -3 265 -7 345 -10 194
-6 517 -14 785 -20 121 -3 324 -7 450 -10 127 -3 345 -8 485 -10 140 -2 386
-7 545 -10 1991 -36 3650 -47 7562 -49 1744 -1 3174 -3 3176 -6 3 -3 8 -64 11
-137 4 -73 8 -161 11 -195 2 -35 7 -108 10 -163 3 -55 8 -116 9 -135 2 -19 7
-82 11 -140 3 -58 8 -118 10 -135 2 -16 7 -64 10 -105 3 -41 8 -93 10 -115 8
-71 15 -149 20 -210 3 -33 7 -78 10 -100 2 -22 7 -67 10 -100 3 -33 7 -76 10
-95 2 -19 7 -57 9 -85 3 -27 8 -79 11 -115 4 -36 8 -76 10 -90 4 -24 9 -73 20
-175 2 -27 7 -72 10 -100 3 -27 8 -72 10 -100 6 -68 14 -143 19 -185 3 -19 8
-66 11 -105 3 -38 8 -81 10 -95 2 -14 6 -56 10 -95 4 -38 10 -97 13 -130 4
-33 7 -80 7 -105 l0 -44 -115 -2 c-254 -4 -1472 -30 -1830 -39 -102 -3 -291
-7 -420 -10 -129 -3 -327 -7 -440 -10 -113 -3 -304 -7 -425 -10 -121 -3 -319
-7 -440 -10 -121 -3 -301 -8 -400 -10 -1053 -22 -958 -16 -1060 -67 -121 -60
-196 -169 -203 -295 -8 -140 57 -273 172 -351 79 -53 119 -60 321 -56 240 4
638 13 860 19 99 2 288 7 420 10 132 3 339 7 460 10 210 5 294 7 850 20 132 3
332 7 445 10 480 12 640 15 910 20 1066 19 1665 35 2265 59 244 10 538 25 610
31 28 2 95 7 150 10 55 4 118 8 140 10 22 2 74 7 115 10 163 12 196 15 235 20
22 2 72 7 110 10 39 3 86 8 105 10 44 5 235 27 275 30 28 3 98 12 155 20 14 2
50 7 80 10 30 3 69 9 85 11 17 3 107 16 200 30 94 13 186 27 205 30 19 3 46 7
60 9 70 10 334 56 339 59 3 2 31 7 61 11 30 4 58 9 61 11 3 2 21 6 40 9 313
53 1354 303 1559 375 14 4 66 20 115 35 139 42 180 54 315 97 586 187 1286
455 1830 700 147 66 278 127 370 170 128 60 741 367 755 377 6 5 46 27 90 51
237 126 470 260 745 427 459 278 551 344 603 434 111 192 51 406 -145 513 -75
41 -111 50 -198 49 -79 -1 -122 -19 -256 -105 -147 -96 -297 -189 -483 -300
-91 -54 -173 -103 -181 -108 -57 -35 -469 -264 -615 -342 -161 -86 -836 -418
-849 -418 -2 0 -48 -21 -103 -46 -588 -276 -1551 -627 -2288 -834 -55 -16
-134 -38 -175 -50 -115 -33 -608 -155 -765 -190 -77 -17 -167 -37 -200 -45
-33 -8 -74 -16 -91 -19 -31 -6 -159 -31 -204 -40 -72 -16 -129 -26 -165 -32
-22 -3 -47 -7 -55 -9 -8 -2 -28 -6 -45 -9 -16 -3 -84 -14 -150 -26 -66 -11
-136 -23 -155 -26 -19 -2 -75 -11 -125 -19 -49 -8 -112 -17 -140 -20 -27 -3
-61 -8 -75 -10 -14 -3 -43 -7 -65 -10 -22 -3 -53 -7 -70 -10 -16 -2 -61 -7
-100 -10 -38 -4 -77 -8 -85 -10 -8 -2 -44 -7 -80 -10 -36 -3 -76 -8 -90 -10
-14 -2 -59 -7 -100 -10 -41 -4 -91 -8 -110 -10 -75 -7 -178 -16 -240 -20 -36
-3 -101 -8 -145 -11 -44 -3 -105 -7 -135 -9 -30 -3 -102 -7 -160 -10 -58 -3
-143 -7 -190 -10 -161 -10 -449 -22 -695 -30 -99 -4 -204 -8 -233 -9 -29 -2
-55 0 -57 4 -2 3 -6 35 -9 71 -7 82 -14 153 -21 204 -3 22 -7 67 -11 100 -3
33 -7 71 -9 85 -4 32 -13 109 -20 180 -2 30 -9 96 -15 145 -5 50 -12 117 -15
150 -3 33 -8 76 -10 95 -3 19 -7 60 -10 90 -6 59 -10 104 -19 190 -4 30 -8 75
-11 100 -2 25 -7 72 -10 105 -10 96 -13 136 -20 210 -3 39 -8 88 -10 110 -2
22 -7 74 -10 115 -4 41 -8 89 -10 105 -2 17 -6 73 -10 125 -3 52 -8 109 -10
125 -2 17 -7 75 -10 130 -3 55 -8 123 -11 150 -2 28 -7 102 -9 165 -3 63 -7
152 -10 198 l-5 82 143 0 c720 2 1490 19 2052 45 66 4 156 8 200 10 87 4 240
13 350 20 39 3 108 7 155 10 129 7 241 15 285 20 22 3 76 7 120 10 44 3 98 8
120 10 38 4 89 9 228 20 31 3 72 7 91 9 18 3 64 8 102 11 38 3 80 8 94 10 14
2 50 6 80 10 30 3 71 8 90 10 19 2 60 7 90 10 30 4 66 8 80 10 14 2 50 7 80
10 30 3 66 8 80 10 14 2 77 11 140 20 63 9 126 18 140 20 14 2 45 7 70 10 25
3 57 8 73 11 15 2 39 6 55 8 15 3 86 15 157 27 72 12 137 22 145 24 18 2 99
16 120 20 8 2 76 15 150 30 74 15 182 38 240 52 58 13 116 27 130 29 14 2 108
27 210 55 102 27 193 52 204 54 123 29 705 226 811 275 11 5 79 34 150 64 186
79 190 81 410 192 268 135 549 304 760 458 70 51 300 231 321 250 6 6 44 40
84 76 74 66 282 271 332 328 302 343 541 707 698 1062 23 52 48 109 55 125 7
17 23 55 34 85 12 30 26 64 31 75 58 125 218 705 255 920 3 17 7 41 10 55 10
48 25 135 41 240 10 65 11 79 18 140 4 30 9 66 11 80 3 22 10 83 21 185 1 17
5 68 8 115 4 47 8 112 11 145 12 157 16 301 16 569 0 384 -9 608 -36 906 -2
25 -7 80 -10 123 -4 43 -8 88 -11 100 -2 12 -6 46 -9 75 -3 29 -7 69 -10 87
-3 19 -7 50 -9 68 -7 52 -28 190 -32 212 -2 11 -8 46 -14 77 -6 32 -12 68 -14
80 -3 13 -10 50 -16 83 -14 75 -45 211 -66 288 -8 32 -17 66 -19 75 -25 127
-175 593 -241 750 -16 37 -29 68 -74 172 -34 80 -172 358 -210 425 -13 22 -34
60 -48 85 -14 25 -33 57 -43 72 -11 14 -19 29 -19 32 0 10 -156 241 -233 346
-110 148 -189 244 -317 383 -565 614 -1288 1035 -2125 1237 -95 23 -365 74
-450 85 -27 3 -79 10 -115 15 -58 8 -100 13 -220 25 -19 2 -69 6 -110 10 -41
3 -97 8 -125 10 -379 32 -1002 23 -1420 -20 -22 -3 -67 -7 -100 -10 -33 -3
-71 -7 -85 -9 -14 -3 -50 -7 -81 -11 -31 -3 -65 -7 -75 -9 -11 -2 -46 -7 -79
-12 -33 -4 -62 -8 -65 -9 -3 0 -30 -5 -60 -9 -30 -4 -62 -9 -70 -11 -8 -1 -31
-5 -50 -9 -19 -3 -46 -8 -60 -11 -14 -3 -54 -10 -89 -16 -36 -5 -67 -12 -70
-13 -3 -2 -24 -7 -45 -10 -48 -8 -64 -11 -146 -30 -36 -8 -76 -17 -90 -20 -23
-4 -366 -91 -400 -101 -8 -2 -62 -18 -120 -35 -58 -17 -197 -62 -308 -99 -187
-63 -205 -68 -217 -53 -8 10 -96 123 -196 252 -155 199 -357 456 -402 510 -7
8 -39 49 -72 90 -33 41 -67 84 -76 95 -36 44 -576 692 -600 720 -31 35 -158
182 -233 270 -28 33 -67 78 -87 100 -19 22 -49 56 -66 75 -38 44 -206 233
-213 240 -3 3 -23 25 -44 50 -44 51 -173 194 -220 244 -42 45 -170 186 -196
217 -126 145 -297 318 -365 370 -128 96 -283 133 -455 108z"/>
<path d="M1555 12432 c-58 -5 -157 -23 -173 -32 -10 -4 -42 -20 -72 -34 -81
-38 -151 -109 -198 -201 -60 -119 -62 -275 -7 -443 33 -98 84 -241 95 -267 5
-11 50 -135 100 -275 50 -140 95 -264 100 -275 5 -11 20 -54 35 -95 15 -41 67
-187 117 -325 50 -137 99 -272 108 -300 134 -390 305 -549 670 -620 95 -19
255 -24 920 -30 333 -3 765 -8 960 -10 1272 -14 2282 -19 4455 -19 2169 0
2975 4 4465 19 775 8 1447 17 2280 31 201 3 462 7 580 9 273 5 780 14 1065 20
121 2 337 7 480 10 143 3 348 7 455 10 107 2 312 7 455 10 143 3 274 8 290 11
72 15 144 73 181 144 23 46 24 153 2 198 -13 24 -14 40 -7 65 23 81 9 136 -64
246 -143 215 -268 512 -323 766 -22 99 -21 95 -28 150 -4 28 -10 64 -13 80 -3
17 -6 152 -7 300 l-1 270 -27 45 c-37 63 -105 111 -178 123 -19 4 -1572 9
-3450 12 -4834 8 -7368 14 -7785 19 -714 9 -1553 31 -1940 51 -55 3 -143 7
-195 10 -149 7 -288 15 -375 20 -188 11 -263 16 -315 20 -30 3 -93 7 -140 10
-47 3 -107 7 -135 10 -27 2 -81 7 -120 10 -38 3 -92 8 -120 10 -27 3 -81 7
-120 10 -38 3 -88 8 -110 10 -22 2 -69 7 -105 10 -36 3 -81 8 -100 10 -19 2
-64 7 -100 11 -36 3 -76 7 -90 9 -14 1 -54 6 -90 9 -36 4 -76 8 -90 11 -14 2
-52 7 -85 10 -33 4 -73 8 -90 10 -16 2 -55 6 -85 10 -30 3 -66 8 -80 10 -14 3
-43 7 -65 10 -22 2 -58 7 -80 10 -22 3 -56 8 -75 10 -61 9 -114 16 -140 20
-46 7 -275 45 -295 49 -102 19 -278 34 -340 28z"/>
</g>
</svg>
